<svg width="1819" height="684" viewBox="0 0 1819 684" fill="none" xmlns="http://www.w3.org/2000/svg">
<path fill-rule="evenodd" clip-rule="evenodd" d="M234.5 526C227.951 526 222.643 531.309 222.643 537.857V538.874L221.924 538.155C217.293 533.525 209.786 533.525 205.155 538.155C200.525 542.786 200.525 550.293 205.155 554.924L205.874 555.643H204.857C198.309 555.643 193 560.951 193 567.5C193 573.854 197.997 579.04 204.276 579.343C199.718 583.979 199.742 591.432 204.349 596.038C208.979 600.669 216.487 600.669 221.117 596.038L222.643 594.513V597.143C222.643 603.691 227.951 609 234.5 609C241.049 609 246.357 603.691 246.357 597.143V596.126L247.076 596.845C251.707 601.475 259.214 601.475 263.845 596.845C268.475 592.214 268.475 584.707 263.845 580.076L263.126 579.357H264.143C270.691 579.357 276 574.049 276 567.5C276 560.951 270.691 555.643 264.143 555.643H261.513L263.038 554.117C267.669 549.487 267.669 541.979 263.038 537.349C258.432 532.742 250.979 532.718 246.343 537.276C246.04 530.997 240.854 526 234.5 526ZM234.501 579.357C241.049 579.357 246.358 574.048 246.358 567.5C246.358 560.951 241.049 555.643 234.501 555.643C227.952 555.643 222.644 560.951 222.644 567.5C222.644 574.048 227.952 579.357 234.501 579.357Z" fill="#A94AFF"/>
<path fill-rule="evenodd" clip-rule="evenodd" d="M1178.5 503C1164.22 503 1152.64 514.577 1152.64 528.857V531.075L1151.07 529.507C1140.98 519.409 1124.6 519.409 1114.51 529.507C1104.41 539.605 1104.41 555.977 1114.51 566.074L1116.08 567.643H1113.86C1099.58 567.643 1088 579.219 1088 593.5C1088 607.356 1098.9 618.666 1112.59 619.327C1102.65 629.437 1102.7 645.69 1112.75 655.734C1122.85 665.832 1139.22 665.832 1149.32 655.734L1152.64 652.407V658.143C1152.64 672.423 1164.22 684 1178.5 684C1192.78 684 1204.36 672.423 1204.36 658.143V655.925L1205.93 657.493C1216.02 667.591 1232.4 667.591 1242.49 657.493C1252.59 647.395 1252.59 631.023 1242.49 620.926L1240.92 619.357H1243.14C1257.42 619.357 1269 607.781 1269 593.5C1269 579.219 1257.42 567.643 1243.14 567.643H1237.41L1240.73 564.316C1250.83 554.218 1250.83 537.846 1240.73 527.748C1230.69 517.703 1214.44 517.65 1204.33 527.59C1203.67 513.898 1192.36 503 1178.5 503ZM1178.5 619.357C1192.78 619.357 1204.36 607.78 1204.36 593.5C1204.36 579.219 1192.78 567.643 1178.5 567.643C1164.22 567.643 1152.64 579.219 1152.64 593.5C1152.64 607.78 1164.22 619.357 1178.5 619.357Z" fill="#A94AFF"/>
<path fill-rule="evenodd" clip-rule="evenodd" d="M528.5 336C515.955 336 505.786 346.17 505.786 358.714V360.663L504.408 359.285C495.537 350.415 481.155 350.415 472.285 359.285C463.414 368.155 463.414 382.537 472.285 391.408L473.663 392.786H471.714C459.17 392.786 449 402.955 449 415.5C449 427.671 458.573 437.607 470.601 438.187C461.87 447.069 461.916 461.346 470.74 470.17C479.611 479.04 493.992 479.04 502.863 470.17L505.786 467.247V472.286C505.786 484.83 515.955 495 528.5 495C541.045 495 551.214 484.83 551.214 472.286V470.337L552.592 471.715C561.463 480.585 575.844 480.585 584.715 471.715C593.585 462.845 593.585 448.463 584.715 439.592L583.337 438.214H585.286C597.83 438.214 608 428.045 608 415.5C608 402.955 597.83 392.786 585.286 392.786H580.247L583.17 389.863C592.04 380.992 592.04 366.61 583.17 357.74C574.346 348.916 560.069 348.87 551.187 357.601C550.607 345.573 540.671 336 528.5 336ZM528.501 438.214C541.046 438.214 551.216 428.044 551.216 415.499C551.216 402.955 541.046 392.785 528.501 392.785C515.957 392.785 505.787 402.955 505.787 415.499C505.787 428.044 515.957 438.214 528.501 438.214Z" fill="#A94AFF"/>
<path fill-rule="evenodd" clip-rule="evenodd" d="M435.5 526C424.218 526 415.071 535.146 415.071 546.429V548.181L413.832 546.942C405.854 538.964 392.92 538.964 384.942 546.942C376.964 554.92 376.964 567.854 384.942 575.832L386.181 577.071H384.429C373.146 577.071 364 586.218 364 597.5C364 608.447 372.61 617.382 383.427 617.904C375.575 625.892 375.616 638.733 383.552 646.669C391.53 654.646 404.465 654.646 412.443 646.669L415.071 644.04V648.571C415.071 659.854 424.218 669 435.5 669C446.782 669 455.929 659.854 455.929 648.571V646.819L457.168 648.058C465.146 656.036 478.08 656.036 486.058 648.058C494.036 640.08 494.036 627.146 486.058 619.168L484.819 617.929H486.571C497.854 617.929 507 608.782 507 597.5C507 586.218 497.854 577.071 486.571 577.071H482.04L484.669 574.443C492.646 566.465 492.646 553.53 484.669 545.552C476.733 537.616 463.892 537.575 455.904 545.427C455.382 534.61 446.447 526 435.5 526ZM435.501 617.928C446.784 617.928 455.93 608.782 455.93 597.499C455.93 586.217 446.784 577.071 435.501 577.071C424.219 577.071 415.073 586.217 415.073 597.499C415.073 608.782 424.219 617.928 435.501 617.928Z" fill="#A94AFF"/>
<path fill-rule="evenodd" clip-rule="evenodd" d="M333 409C326.215 409 320.714 414.501 320.714 421.286V422.34L319.969 421.594C315.171 416.797 307.392 416.797 302.594 421.594C297.796 426.392 297.796 434.171 302.594 438.969L303.34 439.714H302.286C295.501 439.714 290 445.215 290 452C290 458.583 295.178 463.957 301.683 464.271C296.961 469.075 296.986 476.797 301.759 481.57C306.557 486.368 314.336 486.368 319.133 481.57L320.714 479.989V482.714C320.714 489.499 326.215 495 333 495C339.785 495 345.286 489.499 345.286 482.714V481.66L346.031 482.406C350.829 487.203 358.608 487.203 363.406 482.406C368.203 477.608 368.203 469.829 363.406 465.031L362.66 464.286H363.714C370.499 464.286 376 458.785 376 452C376 445.215 370.499 439.714 363.714 439.714H360.989L362.57 438.133C367.368 433.335 367.368 425.557 362.57 420.759C357.797 415.986 350.075 415.961 345.271 420.683C344.957 414.178 339.583 409 333 409ZM333.001 464.286C339.786 464.286 345.287 458.785 345.287 452C345.287 445.215 339.786 439.714 333.001 439.714C326.216 439.714 320.715 445.215 320.715 452C320.715 458.785 326.216 464.286 333.001 464.286Z" fill="#A94AFF"/>
<path fill-rule="evenodd" clip-rule="evenodd" d="M952.5 556C946.583 556 941.786 560.797 941.786 566.714V567.633L941.136 566.983C936.952 562.799 930.168 562.799 925.983 566.983C921.799 571.168 921.799 577.952 925.983 582.136L926.633 582.786H925.714C919.797 582.786 915 587.583 915 593.5C915 599.241 919.516 603.928 925.189 604.202C921.071 608.391 921.093 615.126 925.255 619.288C929.439 623.472 936.223 623.472 940.407 619.288L941.786 617.909V620.286C941.786 626.203 946.583 631 952.5 631C958.417 631 963.214 626.203 963.214 620.286V619.367L963.864 620.017C968.048 624.201 974.832 624.201 979.016 620.017C983.201 615.832 983.201 609.048 979.016 604.864L978.367 604.214H979.286C985.203 604.214 990 599.417 990 593.5C990 587.583 985.203 582.786 979.286 582.786H976.909L978.288 581.407C982.472 577.223 982.472 570.439 978.288 566.255C974.126 562.093 967.391 562.071 963.202 566.189C962.928 560.516 958.241 556 952.5 556ZM952.5 604.214C958.418 604.214 963.215 599.417 963.215 593.5C963.215 587.583 958.418 582.786 952.5 582.786C946.583 582.786 941.786 587.583 941.786 593.5C941.786 599.417 946.583 604.214 952.5 604.214Z" fill="#A94AFF"/>
<path fill-rule="evenodd" clip-rule="evenodd" d="M759.5 362C753.583 362 748.786 366.797 748.786 372.714V373.633L748.136 372.983C743.952 368.799 737.168 368.799 732.983 372.983C728.799 377.168 728.799 383.952 732.983 388.136L733.633 388.786H732.714C726.797 388.786 722 393.583 722 399.5C722 405.241 726.516 409.928 732.189 410.202C728.071 414.391 728.093 421.126 732.255 425.288C736.439 429.472 743.223 429.472 747.407 425.288L748.786 423.909V426.286C748.786 432.203 753.583 437 759.5 437C765.417 437 770.214 432.203 770.214 426.286V425.367L770.864 426.017C775.048 430.201 781.832 430.201 786.016 426.017C790.201 421.832 790.201 415.048 786.016 410.864L785.367 410.214H786.286C792.203 410.214 797 405.417 797 399.5C797 393.583 792.203 388.786 786.286 388.786H783.909L785.288 387.407C789.472 383.223 789.472 376.439 785.288 372.255C781.126 368.093 774.391 368.071 770.202 372.189C769.928 366.516 765.241 362 759.5 362ZM759.5 410.214C765.418 410.214 770.215 405.417 770.215 399.5C770.215 393.583 765.418 388.786 759.5 388.786C753.583 388.786 748.786 393.583 748.786 399.5C748.786 405.417 753.583 410.214 759.5 410.214Z" fill="#A94AFF"/>
<path fill-rule="evenodd" clip-rule="evenodd" d="M1404.5 551C1398.58 551 1393.79 555.797 1393.79 561.714V562.633L1393.14 561.983C1388.95 557.799 1382.17 557.799 1377.98 561.983C1373.8 566.168 1373.8 572.952 1377.98 577.136L1378.63 577.786H1377.71C1371.8 577.786 1367 582.583 1367 588.5C1367 594.241 1371.52 598.928 1377.19 599.202C1373.07 603.391 1373.09 610.126 1377.25 614.288C1381.44 618.472 1388.22 618.472 1392.41 614.288L1393.79 612.909V615.286C1393.79 621.203 1398.58 626 1404.5 626C1410.42 626 1415.21 621.203 1415.21 615.286V614.367L1415.86 615.017C1420.05 619.201 1426.83 619.201 1431.02 615.017C1435.2 610.832 1435.2 604.048 1431.02 599.864L1430.37 599.214H1431.29C1437.2 599.214 1442 594.417 1442 588.5C1442 582.583 1437.2 577.786 1431.29 577.786H1428.91L1430.29 576.407C1434.47 572.223 1434.47 565.439 1430.29 561.255C1426.13 557.093 1419.39 557.071 1415.2 561.189C1414.93 555.516 1410.24 551 1404.5 551ZM1404.5 599.214C1410.42 599.214 1415.21 594.417 1415.21 588.5C1415.21 582.583 1410.42 577.786 1404.5 577.786C1398.58 577.786 1393.79 582.583 1393.79 588.5C1393.79 594.417 1398.58 599.214 1404.5 599.214Z" fill="#A94AFF"/>
<path fill-rule="evenodd" clip-rule="evenodd" d="M1739.5 396C1726.96 396 1716.79 406.17 1716.79 418.714V420.663L1715.41 419.285C1706.54 410.415 1692.16 410.415 1683.28 419.285C1674.41 428.155 1674.41 442.537 1683.28 451.408L1684.66 452.786H1682.71C1670.17 452.786 1660 462.955 1660 475.5C1660 487.671 1669.57 497.607 1681.6 498.187C1672.87 507.069 1672.92 521.346 1681.74 530.17C1690.61 539.04 1704.99 539.04 1713.86 530.17L1716.79 527.247V532.286C1716.79 544.83 1726.96 555 1739.5 555C1752.04 555 1762.21 544.83 1762.21 532.286V530.337L1763.59 531.715C1772.46 540.585 1786.84 540.585 1795.71 531.715C1804.59 522.845 1804.59 508.463 1795.71 499.592L1794.34 498.214H1796.29C1808.83 498.214 1819 488.045 1819 475.5C1819 462.955 1808.83 452.786 1796.29 452.786H1791.25L1794.17 449.863C1803.04 440.992 1803.04 426.61 1794.17 417.74C1785.35 408.916 1771.07 408.87 1762.19 417.601C1761.61 405.573 1751.67 396 1739.5 396ZM1739.5 498.214C1752.05 498.214 1762.22 488.044 1762.22 475.499C1762.22 462.955 1752.05 452.785 1739.5 452.785C1726.96 452.785 1716.79 462.955 1716.79 475.499C1716.79 488.044 1726.96 498.214 1739.5 498.214Z" fill="#A94AFF"/>
<path fill-rule="evenodd" clip-rule="evenodd" d="M810.5 495C801.111 495 793.5 502.611 793.5 512V513.458L792.469 512.427C785.83 505.788 775.066 505.788 768.427 512.427C761.788 519.066 761.788 529.83 768.427 536.469L769.458 537.5H768C758.611 537.5 751 545.111 751 554.5C751 563.609 758.165 571.045 767.167 571.48C760.632 578.127 760.667 588.813 767.271 595.417C773.91 602.055 784.674 602.055 791.312 595.417L793.5 593.229V597C793.5 606.389 801.111 614 810.5 614C819.889 614 827.5 606.389 827.5 597V595.542L828.531 596.573C835.17 603.212 845.934 603.212 852.573 596.573C859.212 589.934 859.212 579.17 852.573 572.531L851.542 571.5H853C862.389 571.5 870 563.889 870 554.5C870 545.111 862.389 537.5 853 537.5H849.229L851.417 535.312C858.055 528.674 858.055 517.91 851.417 511.271C844.813 504.667 834.127 504.632 827.48 511.167C827.045 502.165 819.609 495 810.5 495ZM810.501 571.5C819.89 571.5 827.501 563.888 827.501 554.5C827.501 545.111 819.89 537.5 810.501 537.5C801.112 537.5 793.501 545.111 793.501 554.5C793.501 563.888 801.112 571.5 810.501 571.5Z" fill="#A94AFF"/>
<path fill-rule="evenodd" clip-rule="evenodd" d="M1220 350C1214 350 1209.14 354.861 1209.14 360.857V361.789L1208.48 361.13C1204.24 356.89 1197.37 356.89 1193.13 361.13C1188.89 365.37 1188.89 372.244 1193.13 376.484L1193.79 377.143H1192.86C1186.86 377.143 1182 382.004 1182 388C1182 393.818 1186.58 398.567 1192.32 398.844C1188.15 403.089 1188.17 409.914 1192.39 414.132C1196.63 418.372 1203.51 418.372 1207.75 414.132L1209.14 412.734V415.143C1209.14 421.139 1214 426 1220 426C1226 426 1230.86 421.139 1230.86 415.143V414.212L1231.52 414.87C1235.76 419.11 1242.63 419.11 1246.87 414.87C1251.11 410.63 1251.11 403.756 1246.87 399.516L1246.21 398.857H1247.14C1253.14 398.857 1258 393.996 1258 388C1258 382.004 1253.14 377.143 1247.14 377.143H1244.73L1246.13 375.746C1250.37 371.506 1250.37 364.631 1246.13 360.391C1241.91 356.174 1235.09 356.152 1230.84 360.325C1230.57 354.576 1225.82 350 1220 350ZM1220 398.857C1226 398.857 1230.86 393.996 1230.86 388C1230.86 382.004 1226 377.143 1220 377.143C1214 377.143 1209.14 382.004 1209.14 388C1209.14 393.996 1214 398.857 1220 398.857Z" fill="#A94AFF"/>
<path fill-rule="evenodd" clip-rule="evenodd" d="M1568 551C1560.58 551 1554.57 557.012 1554.57 564.429V565.581L1553.76 564.766C1548.51 559.522 1540.01 559.522 1534.77 564.766C1529.52 570.01 1529.52 578.513 1534.77 583.757L1535.58 584.571H1534.43C1527.01 584.571 1521 590.584 1521 598C1521 605.196 1526.66 611.069 1533.77 611.413C1528.61 616.663 1528.64 625.104 1533.85 630.321C1539.1 635.565 1547.6 635.565 1552.84 630.321L1554.57 628.593V631.571C1554.57 638.988 1560.58 645 1568 645C1575.42 645 1581.43 638.988 1581.43 631.571V630.419L1582.24 631.234C1587.49 636.478 1595.99 636.478 1601.23 631.234C1606.48 625.99 1606.48 617.487 1601.23 612.243L1600.42 611.429H1601.57C1608.99 611.429 1615 605.416 1615 598C1615 590.584 1608.99 584.571 1601.57 584.571H1598.59L1600.32 582.843C1605.56 577.599 1605.56 569.097 1600.32 563.853C1595.1 558.636 1586.66 558.609 1581.41 563.77C1581.07 556.66 1575.2 551 1568 551ZM1568 611.429C1575.42 611.429 1581.43 605.416 1581.43 598C1581.43 590.584 1575.42 584.571 1568 584.571C1560.58 584.571 1554.57 590.584 1554.57 598C1554.57 605.416 1560.58 611.429 1568 611.429Z" fill="#A94AFF"/>
<path fill-rule="evenodd" clip-rule="evenodd" d="M1425.5 388C1417.06 388 1410.21 394.844 1410.21 403.286V404.597L1409.29 403.67C1403.32 397.7 1393.64 397.7 1387.67 403.67C1381.7 409.639 1381.7 419.318 1387.67 425.287L1388.6 426.214H1387.29C1378.84 426.214 1372 433.058 1372 441.5C1372 449.691 1378.44 456.377 1386.54 456.768C1380.66 462.744 1380.69 472.352 1386.63 478.29C1392.6 484.26 1402.28 484.26 1408.25 478.29L1410.21 476.324V479.714C1410.21 488.156 1417.06 495 1425.5 495C1433.94 495 1440.79 488.156 1440.79 479.714V478.403L1441.71 479.33C1447.68 485.3 1457.36 485.3 1463.33 479.33C1469.3 473.361 1469.3 463.682 1463.33 457.713L1462.4 456.786H1463.71C1472.16 456.786 1479 449.942 1479 441.5C1479 433.058 1472.16 426.214 1463.71 426.214H1460.32L1462.29 424.247C1468.26 418.278 1468.26 408.599 1462.29 402.63C1456.35 396.692 1446.74 396.661 1440.77 402.536C1440.38 394.442 1433.69 388 1425.5 388ZM1425.5 456.786C1433.94 456.786 1440.79 449.942 1440.79 441.5C1440.79 433.058 1433.94 426.214 1425.5 426.214C1417.06 426.214 1410.22 433.058 1410.22 441.5C1410.22 449.942 1417.06 456.786 1425.5 456.786Z" fill="#A94AFF"/>
<path fill-rule="evenodd" clip-rule="evenodd" d="M1060 416C1052.58 416 1046.57 422.012 1046.57 429.429V430.581L1045.76 429.766C1040.51 424.522 1032.01 424.522 1026.77 429.766C1021.52 435.01 1021.52 443.513 1026.77 448.757L1027.58 449.571H1026.43C1019.01 449.571 1013 455.584 1013 463C1013 470.196 1018.66 476.069 1025.77 476.413C1020.61 481.663 1020.64 490.104 1025.85 495.321C1031.1 500.565 1039.6 500.565 1044.84 495.321L1046.57 493.593V496.571C1046.57 503.988 1052.58 510 1060 510C1067.42 510 1073.43 503.988 1073.43 496.571V495.419L1074.24 496.234C1079.49 501.478 1087.99 501.478 1093.23 496.234C1098.48 490.99 1098.48 482.487 1093.23 477.243L1092.42 476.429H1093.57C1100.99 476.429 1107 470.416 1107 463C1107 455.584 1100.99 449.571 1093.57 449.571H1090.59L1092.32 447.843C1097.56 442.599 1097.56 434.097 1092.32 428.853C1087.1 423.636 1078.66 423.609 1073.41 428.77C1073.07 421.66 1067.2 416 1060 416ZM1060 476.429C1067.42 476.429 1073.43 470.416 1073.43 463C1073.43 455.584 1067.42 449.571 1060 449.571C1052.58 449.571 1046.57 455.584 1046.57 463C1046.57 470.416 1052.58 476.429 1060 476.429Z" fill="#A94AFF"/>
<path fill-rule="evenodd" clip-rule="evenodd" d="M917 369C909.584 369 903.571 375.012 903.571 382.429V383.581L902.757 382.766C897.513 377.522 889.01 377.522 883.766 382.766C878.522 388.01 878.522 396.513 883.766 401.757L884.581 402.571H883.429C876.012 402.571 870 408.584 870 416C870 423.196 875.66 429.069 882.77 429.413C877.609 434.663 877.636 443.104 882.853 448.321C888.097 453.565 896.599 453.565 901.843 448.321L903.571 446.593V449.571C903.571 456.988 909.584 463 917 463C924.416 463 930.429 456.988 930.429 449.571V448.419L931.243 449.234C936.487 454.478 944.99 454.478 950.234 449.234C955.478 443.99 955.478 435.487 950.234 430.243L949.419 429.429H950.571C957.988 429.429 964 423.416 964 416C964 408.584 957.988 402.571 950.571 402.571H947.593L949.321 400.843C954.565 395.599 954.565 387.097 949.321 381.853C944.104 376.636 935.663 376.609 930.413 381.77C930.069 374.66 924.196 369 917 369ZM917.001 429.429C924.417 429.429 930.429 423.416 930.429 416C930.429 408.584 924.417 402.571 917.001 402.571C909.584 402.571 903.572 408.584 903.572 416C903.572 423.416 909.584 429.429 917.001 429.429Z" fill="#A94AFF"/>
<path fill-rule="evenodd" clip-rule="evenodd" d="M637 495C630.846 495 625.857 499.989 625.857 506.143V507.099L625.181 506.423C620.83 502.071 613.774 502.071 609.423 506.423C605.071 510.774 605.071 517.83 609.423 522.181L610.099 522.857H609.143C602.989 522.857 598 527.846 598 534C598 539.971 602.696 544.845 608.597 545.13C604.313 549.487 604.336 556.491 608.665 560.819C613.016 565.171 620.072 565.171 624.423 560.819L625.857 559.385V561.857C625.857 568.011 630.846 573 637 573C643.154 573 648.143 568.011 648.143 561.857V560.901L648.819 561.577C653.17 565.929 660.226 565.929 664.577 561.577C668.929 557.226 668.929 550.17 664.577 545.819L663.901 545.143H664.857C671.011 545.143 676 540.154 676 534C676 527.846 671.011 522.857 664.857 522.857H662.385L663.819 521.423C668.171 517.072 668.171 510.016 663.819 505.665C659.491 501.336 652.487 501.313 648.13 505.597C647.845 499.696 642.971 495 637 495ZM637.001 545.143C643.155 545.143 648.144 540.154 648.144 534C648.144 527.846 643.155 522.857 637.001 522.857C630.847 522.857 625.858 527.846 625.858 534C625.858 540.154 630.847 545.143 637.001 545.143Z" fill="#A94AFF"/>
<path fill-rule="evenodd" clip-rule="evenodd" d="M73.5 363C61.902 363 52.5 372.402 52.5 384V385.802L51.2261 384.528C43.025 376.327 29.7286 376.327 21.5276 384.528C13.3266 392.729 13.3266 406.025 21.5276 414.226L22.8014 415.5H21C9.40203 415.5 0 424.902 0 436.5C0 447.753 8.85077 456.938 19.9706 457.475C11.8985 465.686 11.9414 478.886 20.0993 487.044C28.3003 495.245 41.5967 495.245 49.7978 487.044L52.5 484.342V489C52.5 500.598 61.902 510 73.5 510C85.098 510 94.5 500.598 94.5 489V487.199L95.7738 488.472C103.975 496.673 117.271 496.673 125.472 488.472C133.673 480.271 133.673 466.975 125.472 458.774L124.198 457.5H126C137.598 457.5 147 448.098 147 436.5C147 424.902 137.598 415.5 126 415.5H121.342L124.044 412.798C132.245 404.597 132.245 391.3 124.044 383.099C115.886 374.941 102.686 374.898 94.4752 382.971C93.9385 371.851 84.7528 363 73.5 363ZM73.5013 457.5C85.0993 457.5 94.5013 448.098 94.5013 436.5C94.5013 424.902 85.0993 415.5 73.5013 415.5C61.9033 415.5 52.5013 424.902 52.5013 436.5C52.5013 448.098 61.9033 457.5 73.5013 457.5Z" fill="#A94AFF"/>
</svg>
