<svg width="1728" height="594" viewBox="0 0 1728 594" fill="none" xmlns="http://www.w3.org/2000/svg">
<rect y="65" width="1728" height="533" fill="url(#paint0_linear_612_93)"/>
<path fill-rule="evenodd" clip-rule="evenodd" d="M204.5 526C197.951 526 192.643 531.309 192.643 537.857V538.874L191.924 538.155C187.293 533.525 179.786 533.525 175.155 538.155C170.525 542.786 170.525 550.293 175.155 554.924L175.874 555.643H174.857C168.309 555.643 163 560.951 163 567.5C163 573.854 167.997 579.04 174.276 579.343C169.718 583.979 169.742 591.432 174.349 596.038C178.979 600.669 186.487 600.669 191.117 596.038L192.643 594.513V597.143C192.643 603.691 197.951 609 204.5 609C211.049 609 216.357 603.691 216.357 597.143V596.126L217.076 596.845C221.707 601.475 229.214 601.475 233.845 596.845C238.475 592.214 238.475 584.707 233.845 580.076L233.126 579.357H234.143C240.691 579.357 246 574.049 246 567.5C246 560.951 240.691 555.643 234.143 555.643H231.513L233.038 554.117C237.669 549.487 237.669 541.979 233.038 537.349C228.432 532.742 220.979 532.718 216.343 537.276C216.04 530.997 210.854 526 204.5 526ZM204.501 579.357C211.049 579.357 216.358 574.048 216.358 567.5C216.358 560.951 211.049 555.643 204.501 555.643C197.952 555.643 192.644 560.951 192.644 567.5C192.644 574.048 197.952 579.357 204.501 579.357Z" fill="#A94AFF"/>
<path fill-rule="evenodd" clip-rule="evenodd" d="M1148.5 503C1134.22 503 1122.64 514.577 1122.64 528.857V531.075L1121.07 529.507C1110.98 519.409 1094.6 519.409 1084.51 529.507C1074.41 539.605 1074.41 555.977 1084.51 566.074L1086.08 567.643H1083.86C1069.58 567.643 1058 579.219 1058 593.5C1058 607.356 1068.9 618.666 1082.59 619.327C1072.65 629.437 1072.7 645.69 1082.75 655.734C1092.85 665.832 1109.22 665.832 1119.32 655.734L1122.64 652.407V658.143C1122.64 672.423 1134.22 684 1148.5 684C1162.78 684 1174.36 672.423 1174.36 658.143V655.925L1175.93 657.493C1186.02 667.591 1202.4 667.591 1212.49 657.493C1222.59 647.395 1222.59 631.023 1212.49 620.926L1210.92 619.357H1213.14C1227.42 619.357 1239 607.781 1239 593.5C1239 579.219 1227.42 567.643 1213.14 567.643H1207.41L1210.73 564.316C1220.83 554.218 1220.83 537.846 1210.73 527.748C1200.69 517.703 1184.44 517.65 1174.33 527.59C1173.67 513.898 1162.36 503 1148.5 503ZM1148.5 619.357C1162.78 619.357 1174.36 607.78 1174.36 593.5C1174.36 579.219 1162.78 567.643 1148.5 567.643C1134.22 567.643 1122.64 579.219 1122.64 593.5C1122.64 607.78 1134.22 619.357 1148.5 619.357Z" fill="#A94AFF"/>
<path fill-rule="evenodd" clip-rule="evenodd" d="M498.5 336C485.955 336 475.786 346.17 475.786 358.714V360.663L474.408 359.285C465.537 350.415 451.155 350.415 442.285 359.285C433.414 368.155 433.414 382.537 442.285 391.408L443.663 392.786H441.714C429.17 392.786 419 402.955 419 415.5C419 427.671 428.573 437.607 440.601 438.187C431.87 447.069 431.916 461.346 440.74 470.17C449.611 479.04 463.992 479.04 472.863 470.17L475.786 467.247V472.286C475.786 484.83 485.955 495 498.5 495C511.045 495 521.214 484.83 521.214 472.286V470.337L522.592 471.715C531.463 480.585 545.844 480.585 554.715 471.715C563.585 462.845 563.585 448.463 554.715 439.592L553.337 438.214H555.286C567.83 438.214 578 428.045 578 415.5C578 402.955 567.83 392.786 555.286 392.786H550.247L553.17 389.863C562.04 380.992 562.04 366.61 553.17 357.74C544.346 348.916 530.069 348.87 521.187 357.601C520.607 345.573 510.671 336 498.5 336ZM498.501 438.214C511.046 438.214 521.216 428.044 521.216 415.499C521.216 402.955 511.046 392.785 498.501 392.785C485.957 392.785 475.787 402.955 475.787 415.499C475.787 428.044 485.957 438.214 498.501 438.214Z" fill="#A94AFF"/>
<path fill-rule="evenodd" clip-rule="evenodd" d="M405.5 526C394.218 526 385.071 535.146 385.071 546.429V548.181L383.832 546.942C375.854 538.964 362.92 538.964 354.942 546.942C346.964 554.92 346.964 567.854 354.942 575.832L356.181 577.071H354.429C343.146 577.071 334 586.218 334 597.5C334 608.447 342.61 617.382 353.427 617.904C345.575 625.892 345.616 638.733 353.552 646.669C361.53 654.646 374.465 654.646 382.443 646.669L385.071 644.04V648.571C385.071 659.854 394.218 669 405.5 669C416.782 669 425.929 659.854 425.929 648.571V646.819L427.168 648.058C435.146 656.036 448.08 656.036 456.058 648.058C464.036 640.08 464.036 627.146 456.058 619.168L454.819 617.929H456.571C467.854 617.929 477 608.782 477 597.5C477 586.218 467.854 577.071 456.571 577.071H452.04L454.669 574.443C462.646 566.465 462.646 553.53 454.669 545.552C446.733 537.616 433.892 537.575 425.904 545.427C425.382 534.61 416.447 526 405.5 526ZM405.501 617.928C416.784 617.928 425.93 608.782 425.93 597.499C425.93 586.217 416.784 577.071 405.501 577.071C394.219 577.071 385.073 586.217 385.073 597.499C385.073 608.782 394.219 617.928 405.501 617.928Z" fill="#A94AFF"/>
<path fill-rule="evenodd" clip-rule="evenodd" d="M303 409C296.215 409 290.714 414.501 290.714 421.286V422.34L289.969 421.594C285.171 416.797 277.392 416.797 272.594 421.594C267.796 426.392 267.796 434.171 272.594 438.969L273.34 439.714H272.286C265.501 439.714 260 445.215 260 452C260 458.583 265.178 463.957 271.683 464.271C266.961 469.075 266.986 476.797 271.759 481.57C276.557 486.368 284.336 486.368 289.133 481.57L290.714 479.989V482.714C290.714 489.499 296.215 495 303 495C309.785 495 315.286 489.499 315.286 482.714V481.66L316.031 482.406C320.829 487.203 328.608 487.203 333.406 482.406C338.203 477.608 338.203 469.829 333.406 465.031L332.66 464.286H333.714C340.499 464.286 346 458.785 346 452C346 445.215 340.499 439.714 333.714 439.714H330.989L332.57 438.133C337.368 433.335 337.368 425.557 332.57 420.759C327.797 415.986 320.075 415.961 315.271 420.683C314.957 414.178 309.583 409 303 409ZM303.001 464.286C309.786 464.286 315.287 458.785 315.287 452C315.287 445.215 309.786 439.714 303.001 439.714C296.216 439.714 290.715 445.215 290.715 452C290.715 458.785 296.216 464.286 303.001 464.286Z" fill="#A94AFF"/>
<path fill-rule="evenodd" clip-rule="evenodd" d="M922.5 556C916.583 556 911.786 560.797 911.786 566.714V567.633L911.136 566.983C906.952 562.799 900.168 562.799 895.983 566.983C891.799 571.168 891.799 577.952 895.983 582.136L896.633 582.786H895.714C889.797 582.786 885 587.583 885 593.5C885 599.241 889.516 603.928 895.189 604.202C891.071 608.391 891.093 615.126 895.255 619.288C899.439 623.472 906.223 623.472 910.407 619.288L911.786 617.909V620.286C911.786 626.203 916.583 631 922.5 631C928.417 631 933.214 626.203 933.214 620.286V619.367L933.864 620.017C938.048 624.201 944.832 624.201 949.016 620.017C953.201 615.832 953.201 609.048 949.016 604.864L948.367 604.214H949.286C955.203 604.214 960 599.417 960 593.5C960 587.583 955.203 582.786 949.286 582.786H946.909L948.288 581.407C952.472 577.223 952.472 570.439 948.288 566.255C944.126 562.093 937.391 562.071 933.202 566.189C932.928 560.516 928.241 556 922.5 556ZM922.5 604.214C928.418 604.214 933.215 599.417 933.215 593.5C933.215 587.583 928.418 582.786 922.5 582.786C916.583 582.786 911.786 587.583 911.786 593.5C911.786 599.417 916.583 604.214 922.5 604.214Z" fill="#A94AFF"/>
<path fill-rule="evenodd" clip-rule="evenodd" d="M729.5 362C723.583 362 718.786 366.797 718.786 372.714V373.633L718.136 372.983C713.952 368.799 707.168 368.799 702.983 372.983C698.799 377.168 698.799 383.952 702.983 388.136L703.633 388.786H702.714C696.797 388.786 692 393.583 692 399.5C692 405.241 696.516 409.928 702.189 410.202C698.071 414.391 698.093 421.126 702.255 425.288C706.439 429.472 713.223 429.472 717.407 425.288L718.786 423.909V426.286C718.786 432.203 723.583 437 729.5 437C735.417 437 740.214 432.203 740.214 426.286V425.367L740.864 426.017C745.048 430.201 751.832 430.201 756.016 426.017C760.201 421.832 760.201 415.048 756.016 410.864L755.367 410.214H756.286C762.203 410.214 767 405.417 767 399.5C767 393.583 762.203 388.786 756.286 388.786H753.909L755.288 387.407C759.472 383.223 759.472 376.439 755.288 372.255C751.126 368.093 744.391 368.071 740.202 372.189C739.928 366.516 735.241 362 729.5 362ZM729.5 410.214C735.418 410.214 740.215 405.417 740.215 399.5C740.215 393.583 735.418 388.786 729.5 388.786C723.583 388.786 718.786 393.583 718.786 399.5C718.786 405.417 723.583 410.214 729.5 410.214Z" fill="#A94AFF"/>
<path fill-rule="evenodd" clip-rule="evenodd" d="M1374.5 551C1368.58 551 1363.79 555.797 1363.79 561.714V562.633L1363.14 561.983C1358.95 557.799 1352.17 557.799 1347.98 561.983C1343.8 566.168 1343.8 572.952 1347.98 577.136L1348.63 577.786H1347.71C1341.8 577.786 1337 582.583 1337 588.5C1337 594.241 1341.52 598.928 1347.19 599.202C1343.07 603.391 1343.09 610.126 1347.25 614.288C1351.44 618.472 1358.22 618.472 1362.41 614.288L1363.79 612.909V615.286C1363.79 621.203 1368.58 626 1374.5 626C1380.42 626 1385.21 621.203 1385.21 615.286V614.367L1385.86 615.017C1390.05 619.201 1396.83 619.201 1401.02 615.017C1405.2 610.832 1405.2 604.048 1401.02 599.864L1400.37 599.214H1401.29C1407.2 599.214 1412 594.417 1412 588.5C1412 582.583 1407.2 577.786 1401.29 577.786H1398.91L1400.29 576.407C1404.47 572.223 1404.47 565.439 1400.29 561.255C1396.13 557.093 1389.39 557.071 1385.2 561.189C1384.93 555.516 1380.24 551 1374.5 551ZM1374.5 599.214C1380.42 599.214 1385.21 594.417 1385.21 588.5C1385.21 582.583 1380.42 577.786 1374.5 577.786C1368.58 577.786 1363.79 582.583 1363.79 588.5C1363.79 594.417 1368.58 599.214 1374.5 599.214Z" fill="#A94AFF"/>
<path fill-rule="evenodd" clip-rule="evenodd" d="M1709.5 396C1696.96 396 1686.79 406.17 1686.79 418.714V420.663L1685.41 419.285C1676.54 410.415 1662.16 410.415 1653.28 419.285C1644.41 428.155 1644.41 442.537 1653.28 451.408L1654.66 452.786H1652.71C1640.17 452.786 1630 462.955 1630 475.5C1630 487.671 1639.57 497.607 1651.6 498.187C1642.87 507.069 1642.92 521.346 1651.74 530.17C1660.61 539.04 1674.99 539.04 1683.86 530.17L1686.79 527.247V532.286C1686.79 544.83 1696.96 555 1709.5 555C1722.04 555 1732.21 544.83 1732.21 532.286V530.337L1733.59 531.715C1742.46 540.585 1756.84 540.585 1765.71 531.715C1774.59 522.845 1774.59 508.463 1765.71 499.592L1764.34 498.214H1766.29C1778.83 498.214 1789 488.045 1789 475.5C1789 462.955 1778.83 452.786 1766.29 452.786H1761.25L1764.17 449.863C1773.04 440.992 1773.04 426.61 1764.17 417.74C1755.35 408.916 1741.07 408.87 1732.19 417.601C1731.61 405.573 1721.67 396 1709.5 396ZM1709.5 498.214C1722.05 498.214 1732.22 488.044 1732.22 475.499C1732.22 462.955 1722.05 452.785 1709.5 452.785C1696.96 452.785 1686.79 462.955 1686.79 475.499C1686.79 488.044 1696.96 498.214 1709.5 498.214Z" fill="#A94AFF"/>
<path fill-rule="evenodd" clip-rule="evenodd" d="M780.5 495C771.111 495 763.5 502.611 763.5 512V513.458L762.469 512.427C755.83 505.788 745.066 505.788 738.427 512.427C731.788 519.066 731.788 529.83 738.427 536.469L739.458 537.5H738C728.611 537.5 721 545.111 721 554.5C721 563.609 728.165 571.045 737.167 571.48C730.632 578.127 730.667 588.813 737.271 595.417C743.91 602.055 754.674 602.055 761.312 595.417L763.5 593.229V597C763.5 606.389 771.111 614 780.5 614C789.889 614 797.5 606.389 797.5 597V595.542L798.531 596.573C805.17 603.212 815.934 603.212 822.573 596.573C829.212 589.934 829.212 579.17 822.573 572.531L821.542 571.5H823C832.389 571.5 840 563.889 840 554.5C840 545.111 832.389 537.5 823 537.5H819.229L821.417 535.312C828.055 528.674 828.055 517.91 821.417 511.271C814.813 504.667 804.127 504.632 797.48 511.167C797.045 502.165 789.609 495 780.5 495ZM780.501 571.5C789.89 571.5 797.501 563.888 797.501 554.5C797.501 545.111 789.89 537.5 780.501 537.5C771.112 537.5 763.501 545.111 763.501 554.5C763.501 563.888 771.112 571.5 780.501 571.5Z" fill="#A94AFF"/>
<path fill-rule="evenodd" clip-rule="evenodd" d="M1190 350C1184 350 1179.14 354.861 1179.14 360.857V361.789L1178.48 361.13C1174.24 356.89 1167.37 356.89 1163.13 361.13C1158.89 365.37 1158.89 372.244 1163.13 376.484L1163.79 377.143H1162.86C1156.86 377.143 1152 382.004 1152 388C1152 393.818 1156.58 398.567 1162.32 398.844C1158.15 403.089 1158.17 409.914 1162.39 414.132C1166.63 418.372 1173.51 418.372 1177.75 414.132L1179.14 412.734V415.143C1179.14 421.139 1184 426 1190 426C1196 426 1200.86 421.139 1200.86 415.143V414.212L1201.52 414.87C1205.76 419.11 1212.63 419.11 1216.87 414.87C1221.11 410.63 1221.11 403.756 1216.87 399.516L1216.21 398.857H1217.14C1223.14 398.857 1228 393.996 1228 388C1228 382.004 1223.14 377.143 1217.14 377.143H1214.73L1216.13 375.746C1220.37 371.506 1220.37 364.631 1216.13 360.391C1211.91 356.174 1205.09 356.152 1200.84 360.325C1200.57 354.576 1195.82 350 1190 350ZM1190 398.857C1196 398.857 1200.86 393.996 1200.86 388C1200.86 382.004 1196 377.143 1190 377.143C1184 377.143 1179.14 382.004 1179.14 388C1179.14 393.996 1184 398.857 1190 398.857Z" fill="#A94AFF"/>
<path fill-rule="evenodd" clip-rule="evenodd" d="M1538 551C1530.58 551 1524.57 557.012 1524.57 564.429V565.581L1523.76 564.766C1518.51 559.522 1510.01 559.522 1504.77 564.766C1499.52 570.01 1499.52 578.513 1504.77 583.757L1505.58 584.571H1504.43C1497.01 584.571 1491 590.584 1491 598C1491 605.196 1496.66 611.069 1503.77 611.413C1498.61 616.663 1498.64 625.104 1503.85 630.321C1509.1 635.565 1517.6 635.565 1522.84 630.321L1524.57 628.593V631.571C1524.57 638.988 1530.58 645 1538 645C1545.42 645 1551.43 638.988 1551.43 631.571V630.419L1552.24 631.234C1557.49 636.478 1565.99 636.478 1571.23 631.234C1576.48 625.99 1576.48 617.487 1571.23 612.243L1570.42 611.429H1571.57C1578.99 611.429 1585 605.416 1585 598C1585 590.584 1578.99 584.571 1571.57 584.571H1568.59L1570.32 582.843C1575.56 577.599 1575.56 569.097 1570.32 563.853C1565.1 558.636 1556.66 558.609 1551.41 563.77C1551.07 556.66 1545.2 551 1538 551ZM1538 611.429C1545.42 611.429 1551.43 605.416 1551.43 598C1551.43 590.584 1545.42 584.571 1538 584.571C1530.58 584.571 1524.57 590.584 1524.57 598C1524.57 605.416 1530.58 611.429 1538 611.429Z" fill="#A94AFF"/>
<path fill-rule="evenodd" clip-rule="evenodd" d="M1395.5 388C1387.06 388 1380.21 394.844 1380.21 403.286V404.597L1379.29 403.67C1373.32 397.7 1363.64 397.7 1357.67 403.67C1351.7 409.639 1351.7 419.318 1357.67 425.287L1358.6 426.214H1357.29C1348.84 426.214 1342 433.058 1342 441.5C1342 449.691 1348.44 456.377 1356.54 456.768C1350.66 462.744 1350.69 472.352 1356.63 478.29C1362.6 484.26 1372.28 484.26 1378.25 478.29L1380.21 476.324V479.714C1380.21 488.156 1387.06 495 1395.5 495C1403.94 495 1410.79 488.156 1410.79 479.714V478.403L1411.71 479.33C1417.68 485.3 1427.36 485.3 1433.33 479.33C1439.3 473.361 1439.3 463.682 1433.33 457.713L1432.4 456.786H1433.71C1442.16 456.786 1449 449.942 1449 441.5C1449 433.058 1442.16 426.214 1433.71 426.214H1430.32L1432.29 424.247C1438.26 418.278 1438.26 408.599 1432.29 402.63C1426.35 396.692 1416.74 396.661 1410.77 402.536C1410.38 394.442 1403.69 388 1395.5 388ZM1395.5 456.786C1403.94 456.786 1410.79 449.942 1410.79 441.5C1410.79 433.058 1403.94 426.214 1395.5 426.214C1387.06 426.214 1380.22 433.058 1380.22 441.5C1380.22 449.942 1387.06 456.786 1395.5 456.786Z" fill="#A94AFF"/>
<path fill-rule="evenodd" clip-rule="evenodd" d="M1030 416C1022.58 416 1016.57 422.012 1016.57 429.429V430.581L1015.76 429.766C1010.51 424.522 1002.01 424.522 996.766 429.766C991.522 435.01 991.522 443.513 996.766 448.757L997.581 449.571H996.429C989.012 449.571 983 455.584 983 463C983 470.196 988.66 476.069 995.77 476.413C990.609 481.663 990.636 490.104 995.853 495.321C1001.1 500.565 1009.6 500.565 1014.84 495.321L1016.57 493.593V496.571C1016.57 503.988 1022.58 510 1030 510C1037.42 510 1043.43 503.988 1043.43 496.571V495.419L1044.24 496.234C1049.49 501.478 1057.99 501.478 1063.23 496.234C1068.48 490.99 1068.48 482.487 1063.23 477.243L1062.42 476.429H1063.57C1070.99 476.429 1077 470.416 1077 463C1077 455.584 1070.99 449.571 1063.57 449.571H1060.59L1062.32 447.843C1067.56 442.599 1067.56 434.097 1062.32 428.853C1057.1 423.636 1048.66 423.609 1043.41 428.77C1043.07 421.66 1037.2 416 1030 416ZM1030 476.429C1037.42 476.429 1043.43 470.416 1043.43 463C1043.43 455.584 1037.42 449.571 1030 449.571C1022.58 449.571 1016.57 455.584 1016.57 463C1016.57 470.416 1022.58 476.429 1030 476.429Z" fill="#A94AFF"/>
<path fill-rule="evenodd" clip-rule="evenodd" d="M887 369C879.584 369 873.571 375.012 873.571 382.429V383.581L872.757 382.766C867.513 377.522 859.01 377.522 853.766 382.766C848.522 388.01 848.522 396.513 853.766 401.757L854.581 402.571H853.429C846.012 402.571 840 408.584 840 416C840 423.196 845.66 429.069 852.77 429.413C847.609 434.663 847.636 443.104 852.853 448.321C858.097 453.565 866.599 453.565 871.843 448.321L873.571 446.593V449.571C873.571 456.988 879.584 463 887 463C894.416 463 900.429 456.988 900.429 449.571V448.419L901.243 449.234C906.487 454.478 914.99 454.478 920.234 449.234C925.478 443.99 925.478 435.487 920.234 430.243L919.419 429.429H920.571C927.988 429.429 934 423.416 934 416C934 408.584 927.988 402.571 920.571 402.571H917.593L919.321 400.843C924.565 395.599 924.565 387.097 919.321 381.853C914.104 376.636 905.663 376.609 900.413 381.77C900.069 374.66 894.196 369 887 369ZM887.001 429.429C894.417 429.429 900.429 423.416 900.429 416C900.429 408.584 894.417 402.571 887.001 402.571C879.584 402.571 873.572 408.584 873.572 416C873.572 423.416 879.584 429.429 887.001 429.429Z" fill="#A94AFF"/>
<path fill-rule="evenodd" clip-rule="evenodd" d="M607 495C600.846 495 595.857 499.989 595.857 506.143V507.099L595.181 506.423C590.83 502.071 583.774 502.071 579.423 506.423C575.071 510.774 575.071 517.83 579.423 522.181L580.099 522.857H579.143C572.989 522.857 568 527.846 568 534C568 539.971 572.696 544.845 578.597 545.13C574.313 549.487 574.336 556.491 578.665 560.819C583.016 565.171 590.072 565.171 594.423 560.819L595.857 559.385V561.857C595.857 568.011 600.846 573 607 573C613.154 573 618.143 568.011 618.143 561.857V560.901L618.819 561.577C623.17 565.929 630.226 565.929 634.577 561.577C638.929 557.226 638.929 550.17 634.577 545.819L633.901 545.143H634.857C641.011 545.143 646 540.154 646 534C646 527.846 641.011 522.857 634.857 522.857H632.385L633.819 521.423C638.171 517.072 638.171 510.016 633.819 505.665C629.491 501.336 622.487 501.313 618.13 505.597C617.845 499.696 612.971 495 607 495ZM607.001 545.143C613.155 545.143 618.144 540.154 618.144 534C618.144 527.846 613.155 522.857 607.001 522.857C600.847 522.857 595.858 527.846 595.858 534C595.858 540.154 600.847 545.143 607.001 545.143Z" fill="#A94AFF"/>
<path fill-rule="evenodd" clip-rule="evenodd" d="M43.5 363C31.902 363 22.5 372.402 22.5 384V385.802L21.2261 384.528C13.025 376.327 -0.271421 376.327 -8.47243 384.528C-16.6734 392.729 -16.6734 406.025 -8.47243 414.226L-7.19857 415.5H-9C-20.598 415.5 -30 424.902 -30 436.5C-30 447.753 -21.1492 456.938 -10.0294 457.475C-18.1015 465.686 -18.0586 478.886 -9.90073 487.044C-1.69972 495.245 11.5967 495.245 19.7978 487.044L22.5 484.342V489C22.5 500.598 31.902 510 43.5 510C55.098 510 64.5 500.598 64.5 489V487.199L65.7738 488.472C73.9748 496.673 87.2713 496.673 95.4723 488.472C103.673 480.271 103.673 466.975 95.4723 458.774L94.1984 457.5H96C107.598 457.5 117 448.098 117 436.5C117 424.902 107.598 415.5 96 415.5H91.3417L94.044 412.798C102.245 404.597 102.245 391.3 94.044 383.099C85.886 374.941 72.6861 374.898 64.4752 382.971C63.9385 371.851 54.7528 363 43.5 363ZM43.5013 457.5C55.0993 457.5 64.5013 448.098 64.5013 436.5C64.5013 424.902 55.0993 415.5 43.5013 415.5C31.9033 415.5 22.5013 424.902 22.5013 436.5C22.5013 448.098 31.9033 457.5 43.5013 457.5Z" fill="#A94AFF"/>
<defs>
<linearGradient id="paint0_linear_612_93" x1="864" y1="65" x2="864" y2="598" gradientUnits="userSpaceOnUse">
<stop stop-color="#A94AFF" stop-opacity="0"/>
<stop offset="1" stop-color="#A94AFF" stop-opacity="0.2"/>
</linearGradient>
</defs>
</svg>
