<svg width="136" height="40" viewBox="0 0 136 40" fill="none" xmlns="http://www.w3.org/2000/svg">
<path d="M58 28.24C56.1333 28.24 54.7533 27.6067 53.86 26.34C52.98 25.0733 52.54 23.3 52.54 21.02C52.54 18.74 52.98 16.9667 53.86 15.7C54.7533 14.4333 56.1333 13.8 58 13.8C59.8667 13.8 61.24 14.4333 62.12 15.7C63.0133 16.9667 63.46 18.74 63.46 21.02C63.46 23.3 63.0133 25.0733 62.12 26.34C61.24 27.6067 59.8667 28.24 58 28.24ZM58 25.82C58.8533 25.82 59.44 25.5067 59.76 24.88C60.0933 24.24 60.26 23.3533 60.26 22.22V19.8C60.26 18.68 60.0933 17.8067 59.76 17.18C59.44 16.54 58.8533 16.22 58 16.22C57.1467 16.22 56.5533 16.54 56.22 17.18C55.9 17.8067 55.74 18.68 55.74 19.8V22.24C55.74 23.36 55.9 24.24 56.22 24.88C56.5533 25.5067 57.1467 25.82 58 25.82ZM71.7322 26.12H71.6122C71.3855 26.7067 71.0255 27.2067 70.5322 27.62C70.0522 28.0333 69.3989 28.24 68.5722 28.24C68.0789 28.24 67.6255 28.16 67.2122 28C66.7989 27.8267 66.4455 27.5733 66.1522 27.24C65.8589 26.9067 65.6255 26.5 65.4522 26.02C65.2922 25.54 65.2122 24.9867 65.2122 24.36V17.68H68.1722V23.96C68.1722 25.2933 68.7522 25.96 69.9122 25.96C70.1389 25.96 70.3589 25.9333 70.5722 25.88C70.7989 25.8133 70.9922 25.72 71.1522 25.6C71.3255 25.4667 71.4655 25.3067 71.5722 25.12C71.6789 24.9333 71.7322 24.7133 71.7322 24.46V17.68H74.6922V28H71.7322V26.12ZM77.4644 25.7H79.8444V19.98H77.4644V17.68H82.8044V20.6H82.9444C83.0377 20.2267 83.1644 19.8667 83.3244 19.52C83.4977 19.16 83.711 18.8467 83.9644 18.58C84.231 18.3 84.551 18.08 84.9244 17.92C85.2977 17.76 85.7377 17.68 86.2444 17.68H87.2244V20.4H85.0244C84.291 20.4 83.7377 20.62 83.3644 21.06C82.991 21.4867 82.8044 22.0133 82.8044 22.64V25.7H86.2044V28H77.4644V25.7ZM97.7166 28C97.1032 28 96.6099 27.8467 96.2366 27.54C95.8632 27.22 95.6432 26.7667 95.5766 26.18H95.4766C95.2899 26.86 94.9166 27.3733 94.3566 27.72C93.8099 28.0667 93.1366 28.24 92.3366 28.24C91.3366 28.24 90.5299 27.9733 89.9166 27.44C89.3166 26.8933 89.0166 26.1333 89.0166 25.16C89.0166 24.08 89.4099 23.28 90.1966 22.76C90.9832 22.24 92.1366 21.98 93.6566 21.98H95.3166V21.46C95.3166 20.8467 95.1699 20.3867 94.8766 20.08C94.5966 19.76 94.1166 19.6 93.4366 19.6C92.8099 19.6 92.3032 19.72 91.9166 19.96C91.5299 20.2 91.1966 20.5133 90.9166 20.9L89.2966 19.46C89.6432 18.8733 90.1832 18.3933 90.9166 18.02C91.6632 17.6333 92.6166 17.44 93.7766 17.44C95.1899 17.44 96.2899 17.7667 97.0766 18.42C97.8766 19.06 98.2766 20.0333 98.2766 21.34V25.86H99.4166V28H97.7166ZM93.4566 26.3C93.9766 26.3 94.4166 26.1733 94.7766 25.92C95.1366 25.6667 95.3166 25.3 95.3166 24.82V23.58H93.7366C92.5232 23.58 91.9166 23.9867 91.9166 24.8V25.2C91.9166 25.56 92.0566 25.8333 92.3366 26.02C92.6166 26.2067 92.9899 26.3 93.4566 26.3ZM101.269 28V17.68H104.229V19.56H104.349C104.469 19.2667 104.615 18.9933 104.789 18.74C104.962 18.4867 105.169 18.2667 105.409 18.08C105.662 17.88 105.949 17.7267 106.269 17.62C106.602 17.5 106.975 17.44 107.389 17.44C107.882 17.44 108.335 17.5267 108.749 17.7C109.162 17.86 109.515 18.1067 109.809 18.44C110.102 18.7733 110.329 19.18 110.489 19.66C110.662 20.14 110.749 20.6933 110.749 21.32V28H107.789V21.72C107.789 20.3867 107.209 19.72 106.049 19.72C105.822 19.72 105.595 19.7533 105.369 19.82C105.155 19.8733 104.962 19.9667 104.789 20.1C104.615 20.22 104.475 20.3733 104.369 20.56C104.275 20.7467 104.229 20.9667 104.229 21.22V28H101.269ZM117.961 28.24C117.161 28.24 116.441 28.12 115.801 27.88C115.161 27.6267 114.614 27.2667 114.161 26.8C113.721 26.3333 113.381 25.7667 113.141 25.1C112.901 24.4333 112.781 23.68 112.781 22.84C112.781 22 112.901 21.2467 113.141 20.58C113.381 19.9133 113.721 19.3467 114.161 18.88C114.614 18.4133 115.161 18.06 115.801 17.82C116.441 17.5667 117.161 17.44 117.961 17.44C118.761 17.44 119.481 17.5667 120.121 17.82C120.761 18.06 121.301 18.4133 121.741 18.88C122.194 19.3467 122.541 19.9133 122.781 20.58C123.021 21.2467 123.141 22 123.141 22.84C123.141 23.68 123.021 24.4333 122.781 25.1C122.541 25.7667 122.194 26.3333 121.741 26.8C121.301 27.2667 120.761 27.6267 120.121 27.88C119.481 28.12 118.761 28.24 117.961 28.24ZM117.961 26.04C118.628 26.04 119.148 25.8333 119.521 25.42C119.894 25.0067 120.081 24.42 120.081 23.66V22.02C120.081 21.26 119.894 20.6733 119.521 20.26C119.148 19.8467 118.628 19.64 117.961 19.64C117.294 19.64 116.774 19.8467 116.401 20.26C116.028 20.6733 115.841 21.26 115.841 22.02V23.66C115.841 24.42 116.028 25.0067 116.401 25.42C116.774 25.8333 117.294 26.04 117.961 26.04ZM129.833 28.24C128.686 28.24 127.686 28.0667 126.833 27.72C125.993 27.3733 125.36 26.9 124.933 26.3L126.593 24.76C126.993 25.2 127.46 25.5467 127.993 25.8C128.54 26.04 129.16 26.16 129.853 26.16C130.44 26.16 130.9 26.0733 131.233 25.9C131.566 25.7133 131.733 25.4333 131.733 25.06C131.733 24.7667 131.62 24.5667 131.393 24.46C131.166 24.34 130.853 24.2467 130.453 24.18L128.793 23.92C128.326 23.8533 127.893 23.7533 127.493 23.62C127.093 23.4733 126.746 23.28 126.453 23.04C126.16 22.8 125.926 22.5067 125.753 22.16C125.58 21.8133 125.493 21.3933 125.493 20.9C125.493 19.82 125.906 18.9733 126.733 18.36C127.56 17.7467 128.72 17.44 130.213 17.44C131.226 17.44 132.086 17.58 132.793 17.86C133.513 18.1267 134.086 18.5133 134.513 19.02L133.033 20.7C132.726 20.3667 132.333 20.0867 131.853 19.86C131.373 19.6333 130.793 19.52 130.113 19.52C128.966 19.52 128.393 19.8667 128.393 20.56C128.393 20.8667 128.506 21.08 128.733 21.2C128.96 21.3067 129.273 21.3933 129.673 21.46L131.313 21.72C131.78 21.7867 132.213 21.8933 132.613 22.04C133.013 22.1733 133.36 22.36 133.653 22.6C133.96 22.84 134.2 23.1333 134.373 23.48C134.546 23.8267 134.633 24.2467 134.633 24.74C134.633 25.82 134.213 26.6733 133.373 27.3C132.546 27.9267 131.366 28.24 129.833 28.24Z" fill="#A94AFF"/>
<path fill-rule="evenodd" clip-rule="evenodd" d="M20 0C16.8441 0 14.2857 2.55837 14.2857 5.71429V6.20452L13.9391 5.85786C11.7075 3.6263 8.08941 3.6263 5.85784 5.85786C3.62627 8.08943 3.62628 11.7075 5.85784 13.9391L6.20447 14.2857H5.71429C2.55837 14.2857 0 16.8441 0 20C0 23.062 2.40837 25.5615 5.43418 25.7075C3.23768 27.9418 3.24935 31.5336 5.46919 33.7535C7.70076 35.985 11.3188 35.985 13.5504 33.7535L14.2857 33.0181V34.2857C14.2857 37.4416 16.8441 40 20 40C23.1559 40 25.7143 37.4416 25.7143 34.2857V33.7955L26.0609 34.1421C28.2925 36.3737 31.9105 36.3737 34.1421 34.1421C36.3737 31.9106 36.3737 28.2925 34.1421 26.0609L33.7955 25.7143H34.2857C37.4416 25.7143 40 23.1559 40 20C40 16.8441 37.4416 14.2857 34.2857 14.2857H33.0181L33.7535 13.5504C35.985 11.3188 35.985 7.70074 33.7535 5.46918C31.5336 3.24934 27.9418 3.23767 25.7075 5.43418C25.5615 2.40837 23.062 0 20 0ZM20 25.7143C23.1559 25.7143 25.7143 23.1559 25.7143 20C25.7143 16.8441 23.1559 14.2857 20 14.2857C16.8441 14.2857 14.2857 16.8441 14.2857 20C14.2857 23.1559 16.8441 25.7143 20 25.7143Z" fill="#A94AFF"/>
</svg>
