<svg width="84" height="26" viewBox="0 0 84 26" fill="none" xmlns="http://www.w3.org/2000/svg">
<path d="M6 21.24C4.13333 21.24 2.75333 20.6067 1.86 19.34C0.98 18.0733 0.54 16.3 0.54 14.02C0.54 11.74 0.98 9.96667 1.86 8.7C2.75333 7.43333 4.13333 6.8 6 6.8C7.86667 6.8 9.24 7.43333 10.12 8.7C11.0133 9.96667 11.46 11.74 11.46 14.02C11.46 16.3 11.0133 18.0733 10.12 19.34C9.24 20.6067 7.86667 21.24 6 21.24ZM6 18.82C6.85333 18.82 7.44 18.5067 7.76 17.88C8.09333 17.24 8.26 16.3533 8.26 15.22V12.8C8.26 11.68 8.09333 10.8067 7.76 10.18C7.44 9.54 6.85333 9.22 6 9.22C5.14667 9.22 4.55333 9.54 4.22 10.18C3.9 10.8067 3.74 11.68 3.74 12.8V15.24C3.74 16.36 3.9 17.24 4.22 17.88C4.55333 18.5067 5.14667 18.82 6 18.82ZM19.7322 19.12H19.6122C19.3855 19.7067 19.0255 20.2067 18.5322 20.62C18.0522 21.0333 17.3989 21.24 16.5722 21.24C16.0789 21.24 15.6255 21.16 15.2122 21C14.7989 20.8267 14.4455 20.5733 14.1522 20.24C13.8589 19.9067 13.6255 19.5 13.4522 19.02C13.2922 18.54 13.2122 17.9867 13.2122 17.36V10.68H16.1722V16.96C16.1722 18.2933 16.7522 18.96 17.9122 18.96C18.1389 18.96 18.3589 18.9333 18.5722 18.88C18.7989 18.8133 18.9922 18.72 19.1522 18.6C19.3255 18.4667 19.4655 18.3067 19.5722 18.12C19.6789 17.9333 19.7322 17.7133 19.7322 17.46V10.68H22.6922V21H19.7322V19.12ZM25.4644 18.7H27.8444V12.98H25.4644V10.68H30.8044V13.6H30.9444C31.0377 13.2267 31.1644 12.8667 31.3244 12.52C31.4977 12.16 31.711 11.8467 31.9644 11.58C32.231 11.3 32.551 11.08 32.9244 10.92C33.2977 10.76 33.7377 10.68 34.2444 10.68H35.2244V13.4H33.0244C32.291 13.4 31.7377 13.62 31.3644 14.06C30.991 14.4867 30.8044 15.0133 30.8044 15.64V18.7H34.2044V21H25.4644V18.7ZM45.7166 21C45.1032 21 44.6099 20.8467 44.2366 20.54C43.8632 20.22 43.6432 19.7667 43.5766 19.18H43.4766C43.2899 19.86 42.9166 20.3733 42.3566 20.72C41.8099 21.0667 41.1366 21.24 40.3366 21.24C39.3366 21.24 38.5299 20.9733 37.9166 20.44C37.3166 19.8933 37.0166 19.1333 37.0166 18.16C37.0166 17.08 37.4099 16.28 38.1966 15.76C38.9832 15.24 40.1366 14.98 41.6566 14.98H43.3166V14.46C43.3166 13.8467 43.1699 13.3867 42.8766 13.08C42.5966 12.76 42.1166 12.6 41.4366 12.6C40.8099 12.6 40.3032 12.72 39.9166 12.96C39.5299 13.2 39.1966 13.5133 38.9166 13.9L37.2966 12.46C37.6432 11.8733 38.1832 11.3933 38.9166 11.02C39.6632 10.6333 40.6166 10.44 41.7766 10.44C43.1899 10.44 44.2899 10.7667 45.0766 11.42C45.8766 12.06 46.2766 13.0333 46.2766 14.34V18.86H47.4166V21H45.7166ZM41.4566 19.3C41.9766 19.3 42.4166 19.1733 42.7766 18.92C43.1366 18.6667 43.3166 18.3 43.3166 17.82V16.58H41.7366C40.5232 16.58 39.9166 16.9867 39.9166 17.8V18.2C39.9166 18.56 40.0566 18.8333 40.3366 19.02C40.6166 19.2067 40.9899 19.3 41.4566 19.3ZM49.2688 21V10.68H52.2288V12.56H52.3488C52.4688 12.2667 52.6154 11.9933 52.7888 11.74C52.9621 11.4867 53.1688 11.2667 53.4088 11.08C53.6621 10.88 53.9488 10.7267 54.2688 10.62C54.6021 10.5 54.9754 10.44 55.3888 10.44C55.8821 10.44 56.3354 10.5267 56.7488 10.7C57.1621 10.86 57.5154 11.1067 57.8088 11.44C58.1021 11.7733 58.3288 12.18 58.4888 12.66C58.6621 13.14 58.7488 13.6933 58.7488 14.32V21H55.7888V14.72C55.7888 13.3867 55.2088 12.72 54.0488 12.72C53.8221 12.72 53.5954 12.7533 53.3688 12.82C53.1554 12.8733 52.9621 12.9667 52.7888 13.1C52.6154 13.22 52.4754 13.3733 52.3688 13.56C52.2754 13.7467 52.2288 13.9667 52.2288 14.22V21H49.2688ZM65.9609 21.24C65.1609 21.24 64.4409 21.12 63.8009 20.88C63.1609 20.6267 62.6143 20.2667 62.1609 19.8C61.7209 19.3333 61.3809 18.7667 61.1409 18.1C60.9009 17.4333 60.7809 16.68 60.7809 15.84C60.7809 15 60.9009 14.2467 61.1409 13.58C61.3809 12.9133 61.7209 12.3467 62.1609 11.88C62.6143 11.4133 63.1609 11.06 63.8009 10.82C64.4409 10.5667 65.1609 10.44 65.9609 10.44C66.7609 10.44 67.4809 10.5667 68.1209 10.82C68.7609 11.06 69.3009 11.4133 69.7409 11.88C70.1943 12.3467 70.5409 12.9133 70.7809 13.58C71.0209 14.2467 71.1409 15 71.1409 15.84C71.1409 16.68 71.0209 17.4333 70.7809 18.1C70.5409 18.7667 70.1943 19.3333 69.7409 19.8C69.3009 20.2667 68.7609 20.6267 68.1209 20.88C67.4809 21.12 66.7609 21.24 65.9609 21.24ZM65.9609 19.04C66.6276 19.04 67.1476 18.8333 67.5209 18.42C67.8943 18.0067 68.0809 17.42 68.0809 16.66V15.02C68.0809 14.26 67.8943 13.6733 67.5209 13.26C67.1476 12.8467 66.6276 12.64 65.9609 12.64C65.2943 12.64 64.7743 12.8467 64.4009 13.26C64.0276 13.6733 63.8409 14.26 63.8409 15.02V16.66C63.8409 17.42 64.0276 18.0067 64.4009 18.42C64.7743 18.8333 65.2943 19.04 65.9609 19.04ZM77.8331 21.24C76.6865 21.24 75.6865 21.0667 74.8331 20.72C73.9931 20.3733 73.3598 19.9 72.9331 19.3L74.5931 17.76C74.9931 18.2 75.4598 18.5467 75.9931 18.8C76.5398 19.04 77.1598 19.16 77.8531 19.16C78.4398 19.16 78.8998 19.0733 79.2331 18.9C79.5665 18.7133 79.7331 18.4333 79.7331 18.06C79.7331 17.7667 79.6198 17.5667 79.3931 17.46C79.1665 17.34 78.8531 17.2467 78.4531 17.18L76.7931 16.92C76.3265 16.8533 75.8931 16.7533 75.4931 16.62C75.0931 16.4733 74.7465 16.28 74.4531 16.04C74.1598 15.8 73.9265 15.5067 73.7531 15.16C73.5798 14.8133 73.4931 14.3933 73.4931 13.9C73.4931 12.82 73.9065 11.9733 74.7331 11.36C75.5598 10.7467 76.7198 10.44 78.2131 10.44C79.2265 10.44 80.0865 10.58 80.7931 10.86C81.5131 11.1267 82.0865 11.5133 82.5131 12.02L81.0331 13.7C80.7265 13.3667 80.3331 13.0867 79.8531 12.86C79.3731 12.6333 78.7931 12.52 78.1131 12.52C76.9665 12.52 76.3931 12.8667 76.3931 13.56C76.3931 13.8667 76.5065 14.08 76.7331 14.2C76.9598 14.3067 77.2731 14.3933 77.6731 14.46L79.3131 14.72C79.7798 14.7867 80.2131 14.8933 80.6131 15.04C81.0131 15.1733 81.3598 15.36 81.6531 15.6C81.9598 15.84 82.1998 16.1333 82.3731 16.48C82.5465 16.8267 82.6331 17.2467 82.6331 17.74C82.6331 18.82 82.2131 19.6733 81.3731 20.3C80.5465 20.9267 79.3665 21.24 77.8331 21.24Z" fill="#A94AFF"/>
</svg>
