<svg width="41" height="41" viewBox="0 0 41 41" fill="none" xmlns="http://www.w3.org/2000/svg">
<path fill-rule="evenodd" clip-rule="evenodd" d="M20.5 0C17.2652 0 14.6429 2.62233 14.6429 5.85714V6.35963L14.2875 6.00431C12.0002 3.71696 8.29165 3.71695 6.00429 6.00431C3.71693 8.29167 3.71693 12.0002 6.00429 14.2876L6.35958 14.6429H5.85714C2.62233 14.6429 0 17.2652 0 20.5C0 23.6385 2.46858 26.2005 5.57003 26.3502C3.31863 28.6403 3.33059 32.322 5.60592 34.5973C7.89328 36.8846 11.6018 36.8846 13.8892 34.5973L14.6429 33.8436V35.1429C14.6429 38.3777 17.2652 41 20.5 41C23.7348 41 26.3571 38.3777 26.3571 35.1429V34.6404L26.7124 34.9957C28.9998 37.283 32.7083 37.283 34.9957 34.9957C37.283 32.7083 37.283 28.9998 34.9957 26.7124L34.6404 26.3571H35.1429C38.3777 26.3571 41 23.7348 41 20.5C41 17.2652 38.3777 14.6429 35.1429 14.6429H33.8436L34.5973 13.8892C36.8847 11.6018 36.8847 7.89326 34.5973 5.60591C32.322 3.33057 28.6403 3.31861 26.3502 5.57003C26.2005 2.46858 23.6385 0 20.5 0ZM20.5 26.3571C23.7348 26.3571 26.3571 23.7348 26.3571 20.5C26.3571 17.2652 23.7348 14.6428 20.5 14.6428C17.2652 14.6428 14.6428 17.2652 14.6428 20.5C14.6428 23.7348 17.2652 26.3571 20.5 26.3571Z" fill="#A94AFF"/>
</svg>
